PathFileType	4	(X/Y/Z)	/Users/itak/Documents/Research/Walk-IL/dataset/trc/00323_00011.trc
DataRate	CameraRate	NumFrames	NumMarkers	Units	OrigDataRate	OrigDataStartFrame	OrigNumFrames
100.000000	100.000000	4	53	mm	100.000000	241	483
Frame#	Time	RPSI			LPSI			L3			STRN			T10			C7			CLAV			RBAK			LBAK			LSHO			LUPA			LAEL			LAOL			LWTS			LWPS			LFRA			LHPS			LHTS			RSHO			RUPA			RAEL			RAOL			RWTS			RWPS			RFRA			RIFD			RHTS			RHPS			RBHD			LFHD			RFHD			LBHD			LHIP			RHIP			RASI			LASI			LKNE			LTHI			LANK			LTIP			LTOE			LMT1			LMT5			LHEE			RKNE			RANK			RTIP			RTOE			RMT1			RMT5			RHEE			LIFD			RTHI			
		X1	Y1	Z1	X2	Y2	Z2	X3	Y3	Z3	X4	Y4	Z4	X5	Y5	Z5	X6	Y6	Z6	X7	Y7	Z7	X8	Y8	Z8	X9	Y9	Z9	X10	Y10	Z10	X11	Y11	Z11	X12	Y12	Z12	X13	Y13	Z13	X14	Y14	Z14	X15	Y15	Z15	X16	Y16	Z16	X17	Y17	Z17	X18	Y18	Z18	X19	Y19	Z19	X20	Y20	Z20	X21	Y21	Z21	X22	Y22	Z22	X23	Y23	Z23	X24	Y24	Z24	X25	Y25	Z25	X26	Y26	Z26	X27	Y27	Z27	X28	Y28	Z28	X29	Y29	Z29	X30	Y30	Z30	X31	Y31	Z31	X32	Y32	Z32	X33	Y33	Z33	X34	Y34	Z34	X35	Y35	Z35	X36	Y36	Z36	X37	Y37	Z37	X38	Y38	Z38	X39	Y39	Z39	X40	Y40	Z40	X41	Y41	Z41	X42	Y42	Z42	X43	Y43	Z43	X44	Y44	Z44	X45	Y45	Z45	X46	Y46	Z46	X47	Y47	Z47	X48	Y48	Z48	X49	Y49	Z49	X50	Y50	Z50	X51	Y51	Z51	X52	Y52	Z52	X53	Y53	Z53	

242	2.41	-809.8936157226562	971.353271484375	100.2712783813477	-805.9210815429688	978.8931884765625	-29.17644691467285	-812.4169311523438	1042.456420898438	27.73430061340332	-567.8842163085938	1209.797729492188	34.28933715820312	-809.4899291992188	1159.986694335938	9.218539237976074	-750.4874267578125	1404.460693359375	-10.25819873809814	-601.54833984375	1336.320922851562	20.55165672302246	-816.1541137695312	1273.359497070312	53.57079315185547	-749.2429809570312	1363.4306640625	-111.6648712158203	-655.9893798828125	1376.259155273438	-151.1731109619141	-650.0450439453125	1259.013916015625	-222.5588836669922	-575.494873046875	1068.47119140625	-243.5301818847656	-638.9714965820312	1032.250854492188	-199.8947601318359	-415.0157775878906	865.6159057617188	-192.1604309082031	-440.2588195800781	847.095947265625	-253.6361389160156	-528.11376953125	973.7984619140625	-251.8242492675781	-417.7682495117188	780.329345703125	-251.9718017578125	-374.5953369140625	798.4146728515625	-209.6041107177734	-718.0929565429688	1395.396240234375	158.5177764892578	-747.78173828125	1337.855712890625	220.9268798828125	-802.8496704101562	1079.023681640625	265.7939453125	-820.525390625	1073.489379882812	173.2898864746094	-730.9515380859375	833.18017578125	254.8636322021484	-786.044921875	828.36767578125	310.5507202148438	-794.8658447265625	1009.618957519531	283.1793823242188	-752.9930419921875	660.8516235351562	273.2540588378906	-727.8607788085938	729.8148803710938	279.58984375	-787.1495971679688	743.8034057617188	313.3619995117188	-693.6439208984375	1607.984008789062	83.03624725341797	-520.090087890625	1600.05859375	-34.93078231811523	-531.6126098632812	1602.467163085938	66.50368499755859	-705.2413330078125	1602.157104492188	-61.54489898681641	-719.9290161132812	919.6466064453125	-133.3097076416016	-727.5145263671875	921.4237060546875	210.2734222412109	-626.2239379882812	953.0994873046875	164.0542449951172	-599.4702758789062	942.5807495117188	-74.83416748046875	-695.9024047851562	457.4407043457031	-82.15907287597656	-689.45166015625	598.9862670898438	-104.1127166748047	-830.5401611328125	47.46426391601562	-37.10313034057617	-760.9447021484375	242.3593292236328	-71.94754791259766	-630.3477172851562	47.77585220336914	33.7447624206543	-699.682373046875	34.65055465698242	73.0638427734375	-704.9934692382812	42.24323654174805	-41.93389129638672	-867.0130004882812	50.02372360229492	29.40086555480957	-515.7340087890625	499.6063232421875	190.1927795410156	-678.3734741210938	105.7607955932617	157.6924285888672	-531.4378662109375	378.2451171875	179.5048828125	-493.0182189941406	46.41180419921875	123.7800216674805	-545.5089111328125	52.03343963623047	77.90125274658203	-590.4417724609375	59.69031524658203	184.7894897460938	-721.5678100585938	124.8530044555664	106.9857635498047	-351.0829772949219	718.6915893554688	-196.7074584960938	-591.2111206054688	741.0394897460938	219.44873046875	
243	2.42	-800.1019897460938	970.674072265625	101.4610748291016	-796.9600219726562	977.9510498046875	-27.99583435058594	-803.71875	1041.6982421875	28.83930587768555	-558.7522583007812	1208.825317382812	33.91857147216797	-800.6573486328125	1158.96826171875	8.987613677978516	-741.4451904296875	1403.341918945312	-10.48169708251953	-592.5241088867188	1335.304931640625	20.31015396118164	-807.1240234375	1272.269165039062	53.35735702514648	-740.1724853515625	1362.296264648438	-111.9659194946289	-646.9619140625	1375.518676757812	-151.3065032958984	-639.8396606445312	1258.64404296875	-222.9369506835938	-561.5833740234375	1069.569458007812	-244.3628997802734	-623.6985473632812	1031.654541015625	-200.2251739501953	-395.6829528808594	871.137939453125	-193.5523834228516	-421.1332397460938	851.44677734375	-254.6496124267578	-512.105224609375	975.996826171875	-252.7695465087891	-396.8620910644531	785.3114013671875	-252.8596954345703	-354.5522155761719	804.2008666992188	-210.7602081298828	-709.0111083984375	1394.268798828125	158.3091278076172	-738.9601440429688	1336.930297851562	220.5981292724609	-796.2723388671875	1078.596435546875	265.0483093261719	-813.4172973632812	1073.20556640625	172.4563598632812	-727.2239990234375	831.8546142578125	254.7848052978516	-782.4907836914062	827.9042358398438	310.2137145996094	-789.109619140625	1009.208312988281	282.4823608398438	-751.805908203125	659.8926391601562	273.0233154296875	-725.5799560546875	728.6396484375	279.5855407714844	-784.833251953125	743.38671875	313.1752319335938	-684.6704711914062	1606.830322265625	82.92118835449219	-510.9147033691406	1599.071166992188	-34.70637130737305	-522.58935546875	1601.37646484375	66.70656585693359	-696.0142211914062	1601.166137695312	-61.65505218505859	-712.5018310546875	918.48193359375	-132.9353179931641	-716.6261596679688	921.16357421875	210.90380859375	-615.837646484375	952.7452392578125	163.6211395263672	-590.9695434570312	941.3133544921875	-75.37279510498047	-692.5565185546875	456.7782592773438	-82.05340576171875	-684.6126098632812	598.1522216796875	-103.5785446166992	-830.3551025390625	47.76122283935547	-36.80180358886719	-759.4607543945312	242.2221527099609	-71.80903625488281	-630.3251342773438	47.59400939941406	33.89543151855469	-699.5181884765625	34.5272216796875	73.16527557373047	-704.9711303710938	42.33319854736328	-41.82926940917969	-866.8861083984375	50.35973358154297	29.71347427368164	-505.2758483886719	498.7547912597656	188.9298248291016	-643.6213989257812	95.60739898681641	157.0200347900391	-514.516357421875	376.5336303710938	178.9151763916016	-454.5530090332031	48.40229797363281	124.3628234863281	-507.1024475097656	50.46248245239258	78.0968017578125	-553.0397338867188	55.45488357543945	184.7090759277344	-687.8189697265625	111.9526519775391	106.1507339477539	-327.8357849121094	725.810791015625	-198.0369720458984	-579.9880981445312	741.287841796875	219.4526214599609	
244	2.43	-790.14697265625	969.8729858398438	102.6796493530273	-787.8755493164062	976.897705078125	-26.7717113494873	-794.8599853515625	1040.781372070312	30.03074836730957	-549.5431518554688	1207.640258789062	33.55625915527344	-791.7876586914062	1157.76220703125	8.824308395385742	-732.3231201171875	1402.0341796875	-10.62536144256592	-583.4200439453125	1334.081909179688	20.08058166503906	-797.9869384765625	1270.976928710938	53.26908874511719	-731.0633544921875	1360.978759765625	-112.1939315795898	-637.9112548828125	1374.56591796875	-151.4073181152344	-629.7177124023438	1258.073120117188	-223.2822570800781	-547.9514770507812	1070.4736328125	-245.0916900634766	-608.7778930664062	1030.992431640625	-200.5832061767578	-376.9075622558594	876.4640502929688	-194.7240905761719	-402.4544677734375	855.663818359375	-255.4877624511719	-496.4319763183594	978.026611328125	-253.5995025634766	-376.4666137695312	790.2022705078125	-253.5737915039062	-335.0131530761719	809.8943481445312	-211.7293853759766	-699.7755737304688	1392.943481445312	158.169677734375	-729.9335327148438	1335.8056640625	220.3615417480469	-789.4853515625	1077.962524414062	264.3538818359375	-806.122802734375	1072.730224609375	171.6707458496094	-723.2785034179688	830.3441162109375	254.7324066162109	-778.6941528320312	827.2661743164062	309.8671569824219	-783.1190795898438	1008.599792480469	281.8372802734375	-750.3471069335938	658.8515014648438	272.8128356933594	-722.9978637695312	727.3795166015625	279.6124572753906	-782.255859375	742.8191528320312	312.9345703125	-675.6341552734375	1605.460083007812	82.84159851074219	-501.7234802246094	1597.925659179688	-34.48484420776367	-513.5139770507812	1600.133056640625	66.89179992675781	-686.7750854492188	1599.93603515625	-61.72194290161133	-704.83544921875	917.2021484375	-132.4737091064453	-705.6551513671875	920.6593017578125	211.5006866455078	-605.3038330078125	952.1382446289062	163.2178955078125	-582.3825073242188	939.9218139648438	-75.883056640625	-688.95751953125	456.0163269042969	-81.91670989990234	-679.6024169921875	597.2388305664062	-103.1082077026367	-830.1511840820312	48.11757278442383	-36.41374969482422	-757.8179321289062	242.0249786376953	-71.59944915771484	-630.2398071289062	47.35503387451172	34.10576629638672	-699.291015625	34.4153938293457	73.24822998046875	-704.9005126953125	42.43601226806641	-41.66728210449219	-866.7410888671875	50.73264312744141	30.11349487304688	-495.5328674316406	497.1380004882812	187.6370391845703	-608.3617553710938	86.11084747314453	156.1937561035156	-498.021240234375	374.4547729492188	178.2883148193359	-416.4512329101562	51.30133056640625	124.4667129516602	-468.8380737304688	49.92980575561523	77.8919677734375	-515.4838256835938	51.93412017822266	184.2955322265625	-653.434814453125	99.73032379150391	105.28369140625	-305.465576171875	732.6297607421875	-199.0527038574219	-569.0435180664062	740.9973754882812	219.4117584228516	
245	2.44	-780.0117797851562	968.9260864257812	103.930305480957	-778.657958984375	975.7247314453125	-25.49973678588867	-785.810546875	1039.699584960938	31.27939605712891	-540.2555541992188	1206.24755859375	33.20622253417969	-782.8714599609375	1156.359619140625	8.744547843933105	-723.119384765625	1400.535278320312	-10.68574237823486	-574.23388671875	1332.658935546875	19.87285995483398	-788.7367553710938	1269.481689453125	53.30588531494141	-721.9092407226562	1359.477416992188	-112.3440093994141	-628.831298828125	1373.403564453125	-151.4704437255859	-619.6649169921875	1257.302734375	-223.5885772705078	-534.6030883789062	1071.16748046875	-245.7320861816406	-594.2996215820312	1030.321899414062	-201.0080413818359	-358.7353820800781	881.5359497070312	-195.6567535400391	-384.2369689941406	859.7203369140625	-256.14697265625	-481.0975646972656	979.8654174804688	-254.3144683837891	-356.5907287597656	794.9677124023438	-254.1081237792969	-315.8981628417969	815.535400390625	-212.5160369873047	-690.3902587890625	1391.420166015625	158.1029815673828	-720.7108764648438	1334.483276367188	220.2176971435547	-782.4822387695312	1077.119873046875	263.7086791992188	-798.6336669921875	1072.060668945312	170.9332885742188	-719.0901489257812	828.6470947265625	254.7037200927734	-774.6506958007812	826.452392578125	309.5029602050781	-776.8871459960938	1007.789001464844	281.2428588867188	-748.6014404296875	657.6914672851562	272.5982360839844	-720.0716552734375	726.026123046875	279.6882629394531	-779.3994140625	742.0894775390625	312.6394653320312	-666.5302124023438	1603.8759765625	82.80158996582031	-492.5074157714844	1596.619873046875	-34.26204299926758	-504.3820495605469	1598.734741210938	67.06271362304688	-677.5100708007812	1598.470458984375	-61.73810195922852	-696.949462890625	915.8136596679688	-131.9375305175781	-694.5733032226562	919.87841796875	212.0717315673828	-594.603515625	951.2626953125	162.8490142822266	-573.6886596679688	938.4085083007812	-76.35737609863281	-685.0955810546875	455.1569519042969	-81.78387451171875	-674.4189453125	596.246826171875	-102.707893371582	-829.9453735351562	48.53713226318359	-35.93767547607422	-756.0225219726562	241.7721405029297	-71.32302856445312	-630.104248046875	47.0682373046875	34.36081695556641	-699.0462646484375	34.29699325561523	73.32966613769531	-704.7792358398438	42.55013656616211	-41.44852828979492	-866.5823974609375	51.1651725769043	30.60243797302246	-486.3850708007812	494.8148803710938	186.3316955566406	-572.7365112304688	77.47782897949219	155.2227478027344	-481.9156494140625	372.0960083007812	177.6220703125	-378.8934020996094	55.189697265625	124.1087188720703	-430.9217834472656	50.52619934082031	77.302734375	-477.9302368164062	49.28167724609375	183.5745697021484	-618.5540161132812	88.37195587158203	104.3821640014648	-283.9850463867188	739.1109619140625	-199.7196655273438	-558.3876953125	740.1238403320312	219.3345642089844	
